<?xml version="1.0" encoding="utf-8"?>
<!-- Uploaded to: SVG Repo, www.svgrepo.com, Generator: SVG Repo Mixer Tools -->
<svg fill="#000000" width="800px" height="800px" viewBox="-6.5 0 32 32" version="1.1" xmlns="http://www.w3.org/2000/svg">
<title>backward</title>
<path d="M18.84 9.88c-0.24-0.16-0.56-0.16-0.8-0.040l-4.72 2.2v-1.44c0-0.28-0.16-0.56-0.4-0.72s-0.56-0.16-0.8-0.040l-11.64 5.4c-0.28 0.12-0.48 0.44-0.48 0.76s0.2 0.64 0.48 0.76l11.64 5.4c0.12 0.040 0.24 0.080 0.36 0.080 0.16 0 0.32-0.040 0.44-0.12 0.24-0.16 0.4-0.44 0.4-0.72v-1.44l4.72 2.2c0.12 0.040 0.24 0.080 0.36 0.080 0.16 0 0.32-0.040 0.44-0.12 0.24-0.16 0.4-0.44 0.4-0.72v-10.8c0-0.32-0.16-0.56-0.4-0.72zM11.64 20.12l-8.84-4.12 8.8-4.12 0.040 8.24zM17.56 20.12l-4.24-1.96v-4.28l4.24-1.96v8.2z"></path>
</svg>