<?xml version="1.0" encoding="utf-8"?>
<!-- Uploaded to: SVG Repo, www.svgrepo.com, Generator: SVG Repo Mixer Tools -->
<svg fill="#000000" width="800px" height="800px" viewBox="-6.5 0 32 32" version="1.1" xmlns="http://www.w3.org/2000/svg">
<title>forward</title>
<path d="M18.76 15.24l-11.64-5.4c-0.24-0.12-0.56-0.12-0.8 0.040s-0.4 0.44-0.4 0.72v1.44l-4.72-2.2c-0.24-0.12-0.56-0.12-0.8 0.040s-0.4 0.44-0.4 0.72v10.84c0 0.28 0.16 0.56 0.4 0.72 0.12 0.080 0.28 0.12 0.44 0.12 0.12 0 0.24-0.040 0.36-0.080l4.72-2.2v1.44c0 0.28 0.16 0.56 0.4 0.72 0.12 0.080 0.28 0.12 0.44 0.12 0.12 0 0.24-0.040 0.36-0.080l11.64-5.4c0.28-0.12 0.48-0.44 0.48-0.76s-0.2-0.68-0.48-0.8zM1.68 20.12v-8.24l4.24 1.96v4.24l-4.24 2.040zM7.6 20.12v-8.24l8.8 4.12-8.8 4.12z"></path>
</svg>